<svg width="160" height="107" viewBox="0 0 160 107" fill="none" xmlns="http://www.w3.org/2000/svg">
<path d="M80.3686 69.5382C80.192 69.5382 79.9977 69.4675 79.8816 69.3539C79.7832 69.2555 79.7125 69.1167 79.6999 68.9804C78.6021 58.3485 75.4653 49.0112 70.3727 41.2158C66.3046 34.9851 60.9798 29.7183 54.5522 25.5595C43.6427 18.501 33.1193 17.0499 33.0159 17.0347C32.766 17.0019 32.5642 16.8152 32.5112 16.5704L32.496 16.4947C32.443 16.2474 32.5541 15.995 32.7686 15.8638C33.026 15.7073 39.1507 12.0128 47.8193 8.31068C55.9781 4.8256 68.1443 0.608667 79.7857 0.300788C99.9189 -0.229167 110.531 1.98403 112.232 7.07412C113.445 10.7081 109.541 14.4859 107.639 16.0632C108.151 16.2297 108.628 16.4013 109.072 16.5755C109.115 16.5881 115.717 18.9174 115.717 20.6763C115.717 20.7041 115.712 20.7747 115.707 20.8C115.651 21.1507 115.434 21.388 115.146 21.6025V21.7564C115.232 22.2586 115.25 22.7961 115.25 23.162C115.25 23.48 115.24 23.7803 115.225 24.0352C124.847 27.8433 125.935 30.6798 125.95 31.7347C125.95 32.7769 125.286 33.6072 123.979 34.2331C122.803 37.4607 118.624 40.696 118.442 40.8348L118.351 40.9054C118.215 41.0114 118.036 41.0518 117.869 41.014L117.73 40.9837L116.481 41.7559C116.307 41.8644 116.088 41.8745 115.906 41.7811L114.059 40.8625C114.041 40.855 114.026 40.8449 114.011 40.8348L111.674 41.6398C111.444 41.7206 111.187 41.6499 111.03 41.4632L110.733 41.1124C110.574 40.9256 110.546 40.6607 110.662 40.4461L111.697 38.5307L111.555 38.4273C110.783 39.0203 109.072 40.3326 109.072 40.3326C108.868 40.489 108.585 40.4966 108.375 40.3502L107.989 40.0827C107.777 39.9364 107.684 39.6714 107.757 39.4241L108.628 36.5245C108.605 36.5093 108.582 36.4942 108.557 36.4791C107.76 36.8954 105.867 37.9604 104.555 39.2954C105.148 39.7446 105.844 40.4689 106.314 41.5717L108.721 40.5521C108.971 40.4436 109.264 40.5244 109.428 40.7439L109.716 41.1275C109.88 41.3445 109.872 41.6474 109.7 41.8568L109.312 42.3313C109.743 42.407 110.175 42.4827 110.387 42.5205L112.958 41.7862C113.201 41.7155 113.455 41.8064 113.602 42.0083L113.874 42.3868C114.021 42.5887 114.023 42.8612 113.882 43.0682L113.41 43.7571L114.498 44.2795C114.644 44.3501 114.758 44.4788 114.806 44.6353L114.914 44.9785C114.965 45.135 114.944 45.3041 114.866 45.4479L114.472 46.1469C114.48 46.1596 114.488 46.1722 114.493 46.1873L114.659 46.5255C114.735 46.6794 114.74 46.8611 114.672 47.0201C114.563 47.2725 112.002 53.2458 109.519 55.6432C108.522 56.6047 106.803 57.1448 104.411 57.2482C103.371 57.2937 102.831 56.7889 102.503 56.4912C102.281 56.2842 102.215 56.2363 102.089 56.2237C101.506 56.1656 100.186 56.6224 99.6413 56.8546L99.4823 56.9227C99.2577 57.0161 98.9978 56.9656 98.8287 56.7915L93.2541 51.0831C93.4232 51.666 93.5998 52.2616 93.7841 52.8622C93.8749 53.1651 93.7134 53.4881 93.4131 53.5941L93.2592 53.6496C92.9538 53.7581 92.6207 53.6016 92.5071 53.2988L91.1999 49.8188C89.0801 55.8123 81.7591 69.1546 80.5352 69.5129C80.4847 69.5281 80.4292 69.5356 80.3737 69.5356L80.3686 69.5382Z" fill="#B4A269"/>
<path d="M148.955 58.5204H137.354C136.034 58.0687 134.651 57.8037 133.216 57.8037C130.644 57.8037 128.025 58.5759 125.67 59.9336C123.661 58.5709 121.249 57.8037 118.68 57.8037C117.224 57.8037 115.757 58.0662 114.309 58.5204H12.5574L0 105.792H105.363C106.682 106.244 108.065 106.512 109.501 106.512C112.073 106.512 114.69 105.739 117.047 104.379C119.056 105.742 121.468 106.512 124.037 106.512C125.493 106.512 126.957 106.249 128.408 105.792H140.16C146.205 105.792 151.953 101.313 153.53 95.3725C153.53 95.37 159.585 72.5768 159.585 72.5768C161.508 65.3366 156.549 58.5204 148.955 58.5204Z" fill="#B4A269"/>
<path d="M148.955 60.7031H137.084C135.89 60.2362 134.583 59.9839 133.215 59.9839C130.467 59.9839 127.787 60.9504 125.546 62.558C123.747 60.9075 121.322 59.9839 118.679 59.9839C117.271 59.9839 115.883 60.2413 114.558 60.7031H14.2353L2.83618 103.609H105.632C106.826 104.076 108.133 104.326 109.501 104.326C112.249 104.326 114.929 103.362 117.17 101.749C118.97 103.402 121.395 104.326 124.037 104.326C125.445 104.326 126.833 104.071 128.155 103.609H140.16C145.245 103.609 150.088 99.8264 151.423 94.8095L157.477 72.0164C159.067 66.0329 155.032 60.7006 148.955 60.7006" fill="#231F20"/>
<path d="M98.8633 45.0801L98.8503 45.0542C98.8503 45.0542 98.8581 45.0723 98.8633 45.0801Z" fill="#231F20"/>
<path d="M114.603 24.4288C114.623 24.1765 114.656 23.697 114.656 23.162C114.656 22.7103 114.628 22.2283 114.555 21.8119L114.547 21.2971C114.913 21.0523 115.09 20.9009 115.118 20.7192C115.118 20.704 115.123 20.6889 115.123 20.6763C115.123 19.7451 110.764 17.7767 108.857 17.1281C108.082 16.8253 107.247 16.5477 106.381 16.2953C106.666 16.0884 113.053 11.3995 111.67 7.26335C110.086 2.52152 99.3653 0.378985 79.8024 0.896322C68.2544 1.20168 56.1664 5.39085 48.0581 8.85322C39.2735 12.6033 33.1411 16.3306 33.0806 16.3685L33.0957 16.4442C33.2017 16.4568 43.8134 17.8978 54.8794 25.0572C61.3776 29.2615 66.7579 34.5888 70.8739 40.8877C76.017 48.7639 79.1867 58.1895 80.292 68.9072V68.9224L80.3046 68.9325C80.3197 68.9476 80.3425 68.9526 80.3677 68.9476C81.0768 68.7381 89.6798 53.8742 91.0551 48.2819C91.1207 48.2743 91.1838 48.2667 91.2469 48.2617L93.0614 53.0944L93.2178 53.0389C92.6955 51.3178 92.2336 49.7077 91.8349 48.1961C92.4254 48.1305 92.8444 48.0876 92.9478 48.0749C92.9655 48.4787 93.0286 50.0055 93.0286 50.0055L99.2543 56.3826L99.4107 56.317C99.4284 56.3094 101.233 55.5524 102.151 55.6432C102.487 55.676 102.671 55.8476 102.906 56.0621C103.214 56.3448 103.597 56.6981 104.387 56.6653C106.633 56.5668 108.223 56.0823 109.111 55.2243C111.511 52.9076 114.025 47.0428 114.128 46.7955L113.962 46.4598L113.664 46.3841L114.348 45.1678L114.239 44.8245C114.239 44.8245 112.922 44.1911 112.528 44.0044C112.758 43.6687 113.389 42.7451 113.389 42.7451L113.116 42.3666C113.116 42.3666 110.52 43.1085 110.414 43.1388C110.323 43.1236 108.786 42.8511 108.208 42.7476C108.544 42.3363 109.235 41.4909 109.235 41.4909L108.947 41.1073C108.947 41.1073 106.606 42.0991 105.965 42.3691C105.513 40.8726 104.564 39.9288 103.65 39.4165C105.18 37.5566 107.968 36.1106 108.574 35.8103C108.92 36.0021 109.177 36.1863 109.313 36.2948C109.228 36.5825 108.322 39.6007 108.322 39.6007L108.708 39.8682C108.708 39.8682 111.277 37.8973 111.542 37.6954C111.736 37.8367 112.238 38.2001 112.463 38.3616C112.286 38.6897 111.181 40.7338 111.181 40.7338L111.479 41.0846C111.479 41.0846 113.858 40.2644 114.242 40.1332C114.262 40.1862 114.323 40.3351 114.323 40.3351L116.17 41.2537L117.621 40.3578L117.992 40.436L118.083 40.3654C118.267 40.224 122.522 36.9257 123.504 33.799C124.733 33.2665 125.361 32.5851 125.361 31.7675V31.7422C125.313 28.7063 116.044 24.9866 114.605 24.4288H114.603Z" fill="#231F20"/>
<path d="M37.5251 14.8568C60.4646 7.94721 78.3443 4.04826 90.6695 3.27352C101.486 2.59214 105.889 4.48989 107.679 6.20341C109.087 7.54849 109.087 8.95413 109.031 9.4639C108.935 12.6361 106.119 15.8335 106.119 15.8335L103.921 15.3943C103.921 15.3943 112.814 6.29174 98.6088 4.84067C92.5749 4.31071 76.1715 4.70692 37.5479 14.9401L37.5251 14.8593V14.8568Z" fill="#B4A269"/>
<path d="M47.0999 18.6876C108.978 -5.05184 102.715 15.2808 102.715 15.2808L98.3187 14.5111C98.3187 14.5111 105.572 -1.42544 47.1024 18.6876H47.0999Z" fill="#B4A269"/>
<path d="M56.6611 23.8534C71.1693 12.1489 81.0618 14.622 81.0618 14.622L84.138 18.2485C84.138 18.2485 75.7849 11.3237 56.6611 23.8534Z" fill="#B4A269"/>
<path d="M68.2014 34.8435C69.3017 17.037 84.0294 18.2483 84.0294 18.2483C84.0294 18.2483 85.4578 19.7877 87.8754 20.777C87.8754 20.8855 70.9496 19.018 68.2014 34.846V34.8435Z" fill="#B4A269"/>
<path d="M84.5802 23.8535L85.5695 27.702C85.5695 27.702 69.633 32.6482 82.2711 60.2337C66.004 29.5695 84.5802 23.8535 84.5802 23.8535Z" fill="#B4A269"/>
<path d="M85.2996 48.4127C85.3576 47.8525 86.0466 41.1675 86.0466 41.1675C86.0466 41.1675 81.5773 32.7463 81.3855 32.3854C81.706 32.1482 86.4024 28.6757 86.4024 28.6757C86.4024 28.6757 85.181 23.891 85.0901 23.5377C85.4132 23.3686 89.7537 21.0999 89.7537 21.0999L89.6881 20.6381C89.6402 20.628 84.9463 19.6059 81.4385 13.7562C81.5899 13.7007 81.7439 13.6502 81.9003 13.6048C82.4429 13.3852 83.6365 13.1405 85.5721 13.3852C87.3866 13.5947 89.196 14.1701 90.6723 14.7631C90.695 14.7732 90.7178 14.7808 90.7405 14.7909C90.7758 14.806 90.8111 14.8186 90.8465 14.8338C91.6691 15.1593 92.5499 15.5454 93.4937 16.0073C93.5114 16.0375 93.524 16.0678 93.5391 16.0981C93.5391 16.0981 93.5417 16.0981 93.5442 16.0981C93.5568 16.1233 93.5644 16.1461 93.577 16.1713C93.5972 16.2167 93.6174 16.2596 93.6375 16.305C93.6527 16.3429 93.6678 16.3833 93.683 16.4211C93.6981 16.464 93.7133 16.5095 93.7259 16.5524C93.736 16.5902 93.7486 16.6281 93.7562 16.6659C93.7662 16.7088 93.7763 16.7517 93.7839 16.7946C93.789 16.8325 93.7965 16.8678 93.8016 16.9057C93.8066 16.9486 93.8092 16.9915 93.8117 17.0344C93.8142 17.0697 93.8167 17.105 93.8167 17.1404C93.8167 17.1833 93.8167 17.2287 93.8117 17.2716C93.8117 17.3044 93.8117 17.3372 93.8066 17.37C93.8016 17.4179 93.7915 17.4684 93.7839 17.5164C93.7789 17.5441 93.7763 17.5719 93.7713 17.5996C93.7562 17.6754 93.736 17.7485 93.7107 17.8242C93.7032 17.852 93.6905 17.8798 93.6805 17.9075C93.6628 17.9555 93.6476 18.0059 93.6275 18.0539C93.6123 18.0867 93.5972 18.1195 93.582 18.1548C93.5618 18.1977 93.5442 18.2406 93.5215 18.2861C93.5038 18.3214 93.4836 18.3567 93.4659 18.3921C93.4432 18.435 93.423 18.4753 93.3978 18.5182C93.3776 18.5536 93.3549 18.5914 93.3322 18.6293C93.307 18.6722 93.2817 18.7126 93.254 18.7555C93.2313 18.7933 93.206 18.8312 93.1808 18.869C93.153 18.9119 93.1253 18.9548 93.095 19.0002C93.0697 19.0381 93.042 19.0785 93.0142 19.1163C92.9839 19.1592 92.9537 19.2047 92.9208 19.2476C92.8931 19.2879 92.8628 19.3283 92.8325 19.3687C92.7997 19.4141 92.7669 19.457 92.7341 19.5024C92.7013 19.5453 92.6685 19.5882 92.6357 19.6337C92.6306 19.6412 92.6231 19.6513 92.618 19.6589C92.4969 19.8179 92.3732 19.9819 92.242 20.151C90.7556 22.0866 88.7165 24.7364 88.1639 29.7129C87.6364 34.4623 88.6156 40.5215 91.0711 47.7718C88.8705 48.0115 85.6579 48.3623 85.292 48.4052L85.2996 48.4127Z" fill="#B4A269"/>
<path d="M105.909 42.9267C105.909 42.9267 107.285 42.3437 108.216 41.95C107.885 42.3538 107.555 42.7601 107.555 42.7601L107.704 43.1588L110.437 43.6434C110.437 43.6434 111.825 43.2472 112.589 43.0276C112.292 43.4642 111.953 43.9588 111.953 43.9588L112.052 44.3222C112.052 44.3222 113.415 44.9758 113.783 45.155C113.637 45.4149 113.405 45.8288 113.293 46.0231C111.381 45.584 108.637 44.9506 108.463 44.8925L108.438 44.885L108.4 44.8774C106.598 44.7033 104.751 44.9026 103.121 45.0768C101.216 45.2812 99.5727 45.4578 99.2901 44.8345L99.28 44.8118L99.2648 44.7916C99.0806 44.5367 98.9746 44.1153 98.9746 43.5752C98.9746 43.1109 99.0579 42.5532 99.232 41.9399C99.2901 42.3387 99.7948 42.5078 99.9613 42.5633L99.9714 42.5532C100.638 42.7879 101.677 42.8989 102.78 42.9443C102.972 42.9595 103.171 42.9645 103.378 42.962C104.254 42.9797 105.135 42.962 105.864 42.9317H105.909V42.9267Z" fill="white"/>
<path d="M105.353 42.152C102.03 43.0857 100.341 41.7179 99.7585 41.0668C99.8166 40.7337 99.9251 40.388 100.077 40.0372C100.304 40.065 102.161 40.3173 102.716 41.3369L103.15 41.0997C102.557 40.0145 100.919 39.6663 100.321 39.5729C100.432 39.371 100.523 39.212 100.556 39.1514C101.215 39.1313 104.24 39.2044 105.353 42.152Z" fill="white"/>
<path d="M116.14 40.686C115.941 40.5875 114.848 40.0425 114.707 39.9743C114.669 39.8784 114.52 39.51 114.52 39.51C114.52 39.51 112.678 40.1434 111.913 40.4084C112.282 39.727 113.099 38.2128 113.099 38.2128L111.527 37.0772C111.527 37.0772 109.778 38.4173 109.009 39.0103C109.281 38.0993 109.874 36.1309 109.874 36.1309L109.758 36.0274C109.69 35.9668 108.527 34.9397 106.869 34.7126C106.856 34.7126 106.841 34.7076 106.826 34.7051C106.755 34.695 106.684 34.6899 106.611 34.6849C106.558 34.6798 106.505 34.6748 106.452 34.6748C106.402 34.6748 106.349 34.6722 106.298 34.6697C106.218 34.6697 106.137 34.6697 106.056 34.6697C106.036 34.6697 106.016 34.6697 105.995 34.6697C106.987 34.3972 108.024 34.3417 109.067 34.5284C111.446 34.9574 113.539 36.5473 114.692 38.7908C114.934 39.3081 115.058 39.669 115.085 39.7194L115.138 39.8229L116.915 40.204C116.574 40.4134 116.256 40.6103 116.135 40.686H116.14Z" fill="white"/>
<path d="M115.471 37.6724C114.772 36.6983 115.057 36.0018 114.615 35.3305C114.436 35.0403 114.199 34.745 113.868 34.4573C109.525 31.2675 104.915 34.2126 103.423 35.3482C103.062 35.6005 102.712 35.8832 102.376 36.2012C101.937 36.615 101.556 37.0365 101.2 37.4554C100.854 37.844 100.534 38.2554 100.259 38.6743H100.254L100.228 38.7197C100.211 38.7475 100.193 38.7752 100.175 38.803C98.9868 40.5872 98.4644 42.2855 98.4644 43.5322C98.4644 44.1757 98.6007 44.6981 98.8455 45.0539C99.2871 45.9851 100.917 45.811 103.168 45.5713C104.531 45.4249 106.048 45.2659 107.544 45.3214C109.879 45.922 113.205 46.7801 113.543 46.8659C113.397 47.199 113.111 47.8274 112.733 48.6021C111.824 50.5957 110.537 53.1698 108.932 54.689C108.872 54.7521 108.811 54.8127 108.751 54.8707C108.597 55.0196 108.415 55.1584 108.208 55.2821C107.587 55.7111 106.926 55.9685 106.227 55.971C105.669 56.0745 105.043 56.1451 104.349 56.1729C104.223 56.1779 104.117 56.1704 104.019 56.1527C103.915 56.1426 103.875 56.1275 103.872 56.1199C103.867 56.1199 103.862 56.1199 103.86 56.1148C103.817 56.1174 103.746 56.0871 103.658 56.0341C103.577 55.9912 103.502 55.9382 103.431 55.8801C103.055 55.6076 102.56 55.2013 102.353 55.1862C101.495 55.1685 100.246 55.5168 99.6631 55.6858C99.542 55.7287 99.4385 55.7716 99.3628 55.8019C99.1408 55.5748 93.6292 49.9295 93.503 49.8008C93.4955 49.6267 93.4172 47.7945 93.4172 47.7945L93.1447 47.5599C93.1447 47.5599 92.5542 47.6255 91.6961 47.7188C87.2294 30.5912 90.4697 26.7326 93.8892 22.6696C94.7068 21.6981 95.5371 20.7088 96.2639 19.5177C96.2739 19.5025 96.284 19.4849 96.2941 19.4672C96.3774 19.3284 96.4607 19.1846 96.544 19.0407C96.549 19.0331 96.5515 19.0256 96.5566 19.018C96.7257 18.7126 96.8897 18.3972 97.0436 18.0616C97.0487 18.0515 97.0512 18.0439 97.0563 18.0338C97.132 17.8723 97.2026 17.7057 97.2733 17.5341C97.2783 17.519 97.2859 17.5038 97.291 17.4887C97.3591 17.3196 97.4272 17.143 97.4928 16.9638C97.4979 16.9512 97.5004 16.9411 97.5055 16.9285C97.6392 16.5524 97.7629 16.1588 97.8739 15.7424V15.7323C97.9294 15.5304 97.9799 15.3209 98.0279 15.1064C98.0405 15.0459 98.0556 14.9878 98.0682 14.9272C102.368 15.4774 108.713 16.7972 113.283 19.6867C113.884 20.035 114.323 20.3404 114.514 20.5397C114.542 20.5599 114.57 20.5801 114.595 20.6003C114.6 20.6003 114.595 20.6079 114.583 20.623C114.585 20.628 114.59 20.6331 114.593 20.6381C114.552 20.6785 114.487 20.7265 114.419 20.7769C113.99 21.158 112.935 22.0211 112.935 22.0211L112.899 23.0406C112.899 23.0406 113.051 23.0179 113.336 22.9725C113.412 23.1542 113.609 23.6286 113.737 23.9314L113.75 23.9642L112.872 23.6236L112.856 24.0753C112.856 24.0753 114.653 24.8425 116.844 25.9074C119.784 27.2247 123.551 29.2184 124.584 30.9268C124.516 30.8713 124.447 30.8183 124.379 30.7679C121.57 30.0007 118.941 29.925 118.936 29.9729C118.931 29.9679 118.923 29.9628 118.918 29.9553L118.898 29.9881L119.698 32.0322L120.165 33.1678H120.172L120.223 33.1426C120.205 32.981 119.986 30.894 119.96 30.6568C120.109 30.8385 121.598 32.6454 121.782 32.87C121.823 32.8751 121.848 32.8801 121.846 32.8826C120.783 37.0011 116.821 38.7752 115.461 37.6724H115.471Z" fill="#B4A269"/>
<path d="M114.051 23.0204C114.036 23.0885 114.018 23.1793 114 23.2626C113.97 23.1869 113.887 23.0506 113.851 22.9648L114.048 23.0204H114.051Z" fill="white"/>
<path d="M113.739 21.9102L113.724 22.6041C113.679 22.4956 113.648 22.425 113.648 22.425C113.648 22.425 113.199 22.4956 112.987 22.5284C113.298 22.2736 113.525 22.0843 113.737 21.9102H113.739Z" fill="white"/>
<path d="M123.208 33.39L123.097 33.4354L123.064 33.5515C122.645 35.0051 121.406 36.5445 120.233 37.7533C121.328 36.0574 123.122 33.2739 123.13 33.2613C123.228 33.2058 124.235 32.6178 124.805 32.1055C124.639 32.59 124.104 33.0215 123.205 33.3925L123.208 33.39Z" fill="#B4A269"/>
<path d="M99.0931 15.2355C99.1265 15.2406 99.1624 15.2457 99.1958 15.2509C99.1599 15.2457 99.1239 15.238 99.0906 15.2329H99.0931V15.2355Z" fill="#231F20"/>
<path d="M113.639 30.7883C102.818 22.0844 93.4226 29.5265 93.4226 29.5265C93.4226 29.5265 102.977 22.8365 113.162 30.9473L112.839 31.0558L112.996 31.5252L114.452 31.0407L114.295 30.5713L113.639 30.7909V30.7883ZM110.263 31.5681C99.9612 27.3764 94.0207 36.633 94.0207 36.633C94.0207 36.633 99.9108 28.2774 109.73 31.7448L109.513 31.818L109.67 32.2873L110.916 31.871L110.76 31.4016L110.26 31.5681H110.263ZM117.551 30.6394L116.996 30.8237C106.914 21.0271 97.8894 23.5532 97.8894 23.5532C97.8894 23.5532 106.876 21.8598 116.524 30.9801L116.304 31.0533L116.461 31.5227L117.707 31.1063L117.551 30.6369V30.6394Z" fill="#231F20"/>
<path d="M104.962 20.0502C104.997 20.2672 105.51 23.4874 105.51 23.4874L105.863 23.6716C105.863 23.6716 108.608 22.3341 108.813 22.2356C108.987 22.3214 110.327 22.9927 110.622 23.1416L110.65 23.1315L110.809 22.7353L107.435 20.0603L106.741 19.5278L106.539 19.6515L107.165 20.4717L102.789 18.1752L102.511 18.0137L102.587 18.6244C102.663 18.7026 102.66 18.7051 102.658 18.7051C103.311 19.0862 104.81 19.9644 104.957 20.0502H104.962Z" fill="#231F20"/>
<path d="M105.909 20.199L105.707 20.3479L105.967 22.5131L106.338 22.6974L108.334 21.5087L108.324 21.3649C108.536 21.5289 108.548 21.5365 108.768 21.7056C108.738 21.7207 106.434 22.8437 105.944 23.0809C105.858 22.5409 105.437 19.9063 105.432 19.876C105.5 19.9214 105.677 20.0425 105.904 20.2015L105.909 20.199Z" fill="white"/>
<path d="M89.3896 17.5647C89.4906 17.2744 89.8439 17.0953 90.4041 17.0322C90.8886 16.9388 91.6407 16.8429 92.7511 16.7319C92.693 16.6789 92.6324 16.6284 92.5744 16.5779C90.6237 15.2076 88.6931 14.4808 87.0048 14.1099C84.7588 13.7894 83.0176 14.1553 82.9847 14.1628L82.8157 14.2007L82.7929 14.3748C82.7728 14.5262 82.422 18.1299 90.6666 20.3608L90.8508 19.904C90.2048 19.5507 89.1398 18.2738 89.3871 17.5697L89.3896 17.5647Z" fill="#231F20"/>
<path d="M114.202 32.8726L113.302 33.2886L113.509 33.7376L114.41 33.3216L114.202 32.8726Z" fill="#231F20"/>
<path d="M116.799 32.8111L115.967 33.3647L116.241 33.7765L117.073 33.2229L116.799 32.8111Z" fill="#231F20"/>
<path d="M57.1574 65.6011H49.2081L40.4133 98.7081H48.3627C51.1992 98.7081 54.1341 96.3864 54.8887 93.5499L60.9428 70.7568C61.6973 67.9203 59.9914 65.6011 57.1574 65.6011ZM55.5171 71.7713L50.0005 92.5379C49.7961 93.3076 49.0037 93.9335 48.234 93.9335H46.8384L53.0969 70.3732H54.4925C55.2622 70.3732 55.7215 70.999 55.5171 71.7687" fill="white"/>
<path d="M140.159 98.7081C142.996 98.7081 145.93 96.3864 146.685 93.5499L152.742 70.7568C153.494 67.9203 151.79 65.6011 148.954 65.6011H141.004L132.21 98.7081H140.159ZM144.893 70.3757H146.289C147.061 70.3757 147.518 71.0016 147.313 71.7713L141.797 92.5405C141.592 93.3102 140.8 93.936 140.03 93.936H138.635L144.893 70.3757Z" fill="white"/>
<path d="M19.2908 98.7081H24.4465L33.2437 65.6011H28.0855L19.2908 98.7081Z" fill="white"/>
<path d="M9.20947 98.7081H17.8604L19.1297 93.936H15.6345L23.1624 65.6011H18.0067L9.20947 98.7081Z" fill="white"/>
<path d="M54.95 98.7081H64.4134L65.6803 93.936H61.3725L63.8683 84.5432H67.419L68.6859 79.7685H65.1377L67.6335 70.3757H71.9388L73.2082 65.6011H63.7447L54.95 98.7081Z" fill="white"/>
<path d="M74.6387 65.6011L65.844 98.7081H70.9997L74.7624 84.5432L73.7908 98.7081H78.949L87.7412 65.6011H82.5855L78.8228 79.7685L79.7944 65.6011H74.6387Z" fill="white"/>
<path d="M34.6729 65.6011L25.8782 98.7081H31.0364L34.7991 84.5432L33.8275 98.7081H38.9832L47.7779 65.6011H42.6222L38.857 79.7685L39.8311 65.6011H34.6729Z" fill="white"/>
<path d="M133.214 64.8848C129.595 64.8848 125.883 67.8172 124.921 71.4385L119.226 92.8765C118.264 96.4928 120.419 99.4277 124.038 99.4277C127.657 99.4277 131.369 96.4928 132.331 92.8765L138.026 71.4385C138.988 67.8172 136.833 64.8848 133.214 64.8848ZM132.972 71.055L127.071 93.2575C126.867 94.0298 126.077 94.6556 125.305 94.6556C124.533 94.6556 124.076 94.0298 124.28 93.2575L130.178 71.055C130.382 70.2853 131.172 69.6594 131.945 69.6594C132.717 69.6594 133.174 70.2853 132.969 71.055" fill="white"/>
<path d="M118.677 64.8848C115.059 64.8848 111.346 67.8172 110.385 71.4385L104.692 92.8765C103.73 96.4928 105.885 99.4277 109.504 99.4277C113.123 99.4277 116.835 96.4928 117.797 92.8765L123.49 71.4385C124.451 67.8172 122.296 64.8848 118.677 64.8848ZM118.435 71.055L112.538 93.2575C112.333 94.0298 111.543 94.6556 110.771 94.6556C109.999 94.6556 109.542 94.0298 109.746 93.2575L115.644 71.055C115.849 70.2853 116.641 69.6594 117.413 69.6594C118.185 69.6594 118.642 70.2853 118.438 71.055" fill="white"/>
<path d="M131.947 69.6567C131.177 69.6567 130.385 70.2826 130.181 71.0523L124.283 93.2549C124.079 94.0271 124.538 94.6529 125.308 94.6529C126.077 94.6529 126.87 94.0271 127.074 93.2549L132.974 71.0523C133.179 70.2826 132.719 69.6567 131.95 69.6567" fill="#231F20"/>
<path d="M117.41 69.6567C116.638 69.6567 115.848 70.2826 115.641 71.0523L109.744 93.2549C109.539 94.0271 109.999 94.6529 110.768 94.6529C111.538 94.6529 112.33 94.0271 112.535 93.2549L118.433 71.0523C118.637 70.2826 118.18 69.6567 117.408 69.6567" fill="#231F20"/>
<path d="M146.291 70.376H144.895L138.637 93.9363H140.033C140.802 93.9363 141.595 93.3104 141.799 92.5407L147.316 71.7715C147.52 71.0018 147.063 70.376 146.291 70.376Z" fill="#231F20"/>
<path d="M54.4934 70.376H53.0979L46.8394 93.9363H48.2349C49.0071 93.9363 49.797 93.3104 50.0014 92.5407L55.518 71.7715C55.7224 71.0018 55.2656 70.376 54.4934 70.376Z" fill="#231F20"/>
<path d="M93.0287 98.7081H99.7843L111.176 65.6011H105.985C103.206 73.2678 100.552 81.2196 98.086 89.232L97.8008 89.1487L100.582 76.4323C101.869 70.4565 102.639 66.8174 102.876 65.6011H97.2759C93.9649 74.9384 91.3984 82.6177 89.642 88.427L89.3568 88.3462L94.2425 65.6011H89.0464L82.7703 98.7081H89.478C92.7006 89.7443 94.7321 84.046 95.6911 81.2852L95.9762 81.3685C94.7422 87.8062 93.7504 93.6357 93.0287 98.7081Z" fill="white"/>
</svg>
